<?xml version="1.0" standalone="no"?>
<!DOCTYPE svg PUBLIC "-//W3C//DTD SVG 20010904//EN"
 "http://www.w3.org/TR/2001/REC-SVG-20010904/DTD/svg10.dtd">
<svg version="1.0" xmlns="http://www.w3.org/2000/svg"
 width="192.000000pt" height="352.000000pt" viewBox="0 0 192.000000 352.000000"
 preserveAspectRatio="xMidYMid meet">
<metadata>
Created by potrace 1.16, written by Peter Selinger 2001-2019
</metadata>
<g transform="translate(0.000000,352.000000) scale(0.100000,-0.100000)"
stroke="none">
<path d="M1685 3509 c-31 -17 -1654 -1641 -1671 -1671 -17 -32 -19 -120 -3
-151 16 -31 1638 -1655 1671 -1673 15 -8 51 -14 80 -14 97 0 158 61 158 158 0
29 -5 63 -11 75 -6 12 -349 361 -763 775 l-751 752 751 753 c414 413 757 762
763 774 6 12 11 46 11 75 0 98 -61 158 -160 158 -30 0 -64 -5 -75 -11z"/>
</g>
</svg>
